<svg width="817" height="818" viewBox="0 0 817 818" fill="none" xmlns="http://www.w3.org/2000/svg">
<path d="M817 409C817 634.608 634.108 817.5 408.5 817.5C182.892 817.5 0 634.608 0 409C0 183.392 182.892 0.5 408.5 0.5C634.108 0.5 817 183.392 817 409Z" fill="black"/>
<path d="M237.283 281.984L309.015 327.919L297.912 345.256L226.181 299.321L237.283 281.984Z" fill="#E8CB7B"/>
<path d="M275.632 222.1L289.712 231.116L269.436 262.779L327.087 299.698L315.984 317.035L244.253 271.1L275.632 222.1Z" fill="#E8CB7B"/>
<path d="M357.007 252.974L345.075 271.607L288.843 201.47L303.623 178.389L390.853 200.121L378.921 218.755L314.474 201.24L314.115 201.801L357.007 252.974ZM327.185 237.383L352.126 198.435L365.296 206.869L340.354 245.816L327.185 237.383Z" fill="#E8CB7B"/>
<path d="M144.677 681.333V661.885H147.946C149.059 661.097 150.078 659.984 151.003 658.547C151.928 657.095 152.72 655.093 153.379 652.544C154.037 649.978 154.507 646.625 154.79 642.483L156.154 622.409H188.02V661.885H193.287V681.287H183.504V669.882H154.46V681.333H144.677ZM159.705 661.885H178.236V630.685H165.325L164.573 642.483C164.369 645.62 164.032 648.402 163.562 650.828C163.107 653.254 162.55 655.379 161.892 657.203C161.249 659.011 160.52 660.572 159.705 661.885Z" fill="white"/>
<path d="M205.146 670.485C203.594 670.485 202.261 669.944 201.148 668.862C200.051 667.765 199.502 666.452 199.502 664.922C199.502 663.407 200.051 662.109 201.148 661.028C202.261 659.946 203.594 659.405 205.146 659.405C206.651 659.405 207.968 659.946 209.097 661.028C210.226 662.109 210.79 663.407 210.79 664.922C210.79 665.942 210.524 666.877 209.991 667.727C209.473 668.561 208.791 669.233 207.945 669.743C207.098 670.238 206.165 670.485 205.146 670.485Z" fill="white"/>
<path d="M251.163 622.409V630.685H229.386V669.882H219.203V622.409H251.163Z" fill="white"/>
<path d="M260.1 669.882H249.188L265.815 622.409H278.937L295.541 669.882H284.629L272.564 633.258H272.188L260.1 669.882ZM259.418 651.222H285.193V659.057H259.418V651.222Z" fill="white"/>
<path d="M298.727 669.882V661.816L300.091 661.7C301.847 661.561 303.266 660.904 304.348 659.729C305.43 658.54 306.237 656.646 306.77 654.05C307.319 651.439 307.672 647.931 307.828 643.527L308.628 622.409H341.317V669.882H331.416V630.453H318.082L317.329 646.98C317.078 652.296 316.436 656.639 315.401 660.008C314.382 663.376 312.751 665.864 310.509 667.472C308.283 669.079 305.234 669.882 301.361 669.882H298.727Z" fill="white"/>
<path d="M349.713 622.409H359.872V652.265H360.272L381.085 622.409H389.998V669.882H379.815V640.003H379.462L358.532 669.882H349.713V622.409Z" fill="white"/>
<path d="M444.811 661.862L444.223 681.101H434.534V669.882H431.147V661.862H444.811ZM398.411 669.882V622.409H408.194V661.816H428.231V622.409H438.132V669.882H398.411Z" fill="white"/>
<path d="M457.692 639.957H469.169C472.994 639.957 476.287 640.567 479.046 641.788C481.821 642.993 483.961 644.701 485.466 646.911C486.971 649.121 487.716 651.725 487.7 654.723C487.716 657.705 486.971 660.34 485.466 662.627C483.961 664.899 481.821 666.676 479.046 667.958C476.287 669.241 472.994 669.882 469.169 669.882H451.178V622.409H461.338V661.816H469.169C471.003 661.816 472.547 661.491 473.802 660.842C475.056 660.178 476.004 659.304 476.647 658.223C477.306 657.126 477.627 655.928 477.611 654.63C477.627 652.744 476.906 651.153 475.448 649.855C474.006 648.541 471.912 647.884 469.169 647.884H457.692V639.957Z" fill="white"/>
<path d="M524.946 669.882L509.472 649.646H505.991V669.882H495.808V622.409H505.991V641.371H508.037L524.029 622.409H536.705L517.914 644.431L537.575 669.882H524.946Z" fill="white"/>
<path d="M584.239 646.146C584.239 651.323 583.243 655.727 581.252 659.359C579.277 662.99 576.58 665.764 573.162 667.68C569.76 669.581 565.935 670.531 561.686 670.531C557.406 670.531 553.565 669.573 550.162 667.657C546.76 665.741 544.071 662.967 542.096 659.335C540.12 655.704 539.133 651.307 539.133 646.146C539.133 640.969 540.12 636.565 542.096 632.933C544.071 629.302 546.76 626.535 550.162 624.635C553.565 622.718 557.406 621.76 561.686 621.76C565.935 621.76 569.76 622.718 573.162 624.635C576.58 626.535 579.277 629.302 581.252 632.933C583.243 636.565 584.239 640.969 584.239 646.146ZM573.915 646.146C573.915 642.792 573.405 639.965 572.386 637.662C571.383 635.359 569.964 633.613 568.13 632.423C566.295 631.233 564.147 630.638 561.686 630.638C559.224 630.638 557.076 631.233 555.242 632.423C553.408 633.613 551.981 635.359 550.962 637.662C549.959 639.965 549.457 642.792 549.457 646.146C549.457 649.499 549.959 652.327 550.962 654.63C551.981 656.932 553.408 658.679 555.242 659.869C557.076 661.058 559.224 661.653 561.686 661.653C564.147 661.653 566.295 661.058 568.13 659.869C569.964 658.679 571.383 656.932 572.386 654.63C573.405 652.327 573.915 649.499 573.915 646.146Z" fill="white"/>
<path d="M623.742 622.409V630.685H601.965V669.882H591.782V622.409H623.742Z" fill="white"/>
<path d="M672.323 646.146C672.323 651.323 671.327 655.727 669.336 659.359C667.361 662.99 664.664 665.764 661.246 667.68C657.844 669.581 654.019 670.531 649.77 670.531C645.49 670.531 641.649 669.573 638.246 667.657C634.844 665.741 632.155 662.967 630.18 659.335C628.205 655.704 627.217 651.307 627.217 646.146C627.217 640.969 628.205 636.565 630.18 632.933C632.155 629.302 634.844 626.535 638.246 624.635C641.649 622.718 645.49 621.76 649.77 621.76C654.019 621.76 657.844 622.718 661.246 624.635C664.664 626.535 667.361 629.302 669.336 632.933C671.327 636.565 672.323 640.969 672.323 646.146ZM661.999 646.146C661.999 642.792 661.489 639.965 660.47 637.662C659.467 635.359 658.048 633.613 656.214 632.423C654.379 631.233 652.231 630.638 649.77 630.638C647.308 630.638 645.16 631.233 643.326 632.423C641.492 633.613 640.065 635.359 639.046 637.662C638.043 639.965 637.541 642.792 637.541 646.146C637.541 649.499 638.043 652.327 639.046 654.63C640.065 656.932 641.492 658.679 643.326 659.869C645.16 661.058 647.308 661.653 649.77 661.653C652.231 661.653 654.379 661.058 656.214 659.869C658.048 658.679 659.467 656.932 660.47 654.63C661.489 652.327 661.999 649.499 661.999 646.146Z" fill="white"/>
<path fill-rule="evenodd" clip-rule="evenodd" d="M110.635 238.792L307.192 368.195L295.89 384.911L144.6 285.309L196.648 473.629L365.948 587.719H152.862L205.148 503.691L178.974 486.052L110.635 238.792ZM221.984 515.037L189.263 567.624H300.019L221.984 515.037Z" fill="white"/>
<path fill-rule="evenodd" clip-rule="evenodd" d="M110.635 238.792L306.375 369.178L294.635 387.122L146.065 288.156L196.124 473.365L224.585 493.528L212.34 511.125L177.588 486.505L110.635 238.792Z" fill="#E8CB7B"/>
<path fill-rule="evenodd" clip-rule="evenodd" d="M706.365 238.792L503.791 365.571L514.668 382.576L672.946 283.519L620.356 474.257L451.052 587.719H659.623L611.094 515.026L594.118 526.114L621.811 567.596H517.348L638.002 486.738L706.365 238.792Z" fill="white"/>
<path fill-rule="evenodd" clip-rule="evenodd" d="M408.742 162.198L646.792 577.555L629.342 587.719L408.555 202.482L187.563 579.871L170.208 569.543L408.742 162.198Z" fill="white"/>
<path d="M740.406 234.536C740.406 255.687 723.26 272.833 702.109 272.833C680.959 272.833 663.812 255.687 663.812 234.536C663.812 213.386 680.959 196.24 702.109 196.24C723.26 196.24 740.406 213.386 740.406 234.536Z" fill="white"/>
<path d="M442.542 174.964C442.542 196.114 425.396 213.26 404.245 213.26C383.094 213.26 365.948 196.114 365.948 174.964C365.948 153.813 383.094 136.667 404.245 136.667C425.396 136.667 442.542 153.813 442.542 174.964Z" fill="white"/>
<path d="M144.677 234.536C144.677 255.687 129.436 272.833 110.635 272.833C91.8347 272.833 76.5938 255.687 76.5938 234.536C76.5938 213.386 91.8347 196.24 110.635 196.24C129.436 196.24 144.677 213.386 144.677 234.536Z" fill="white"/>
<path fill-rule="evenodd" clip-rule="evenodd" d="M445.726 456.805H371.274V582.466H445.726V456.805ZM365.948 451.552V587.719H451.052V451.552H365.948Z" fill="white"/>
<path d="M374.458 460.062H399.99V485.594H374.458V460.062Z" fill="white"/>
<path d="M417.01 460.062H442.542V485.594H417.01V460.062Z" fill="white"/>
<path d="M374.458 485.594H399.99V511.125H374.458V485.594Z" fill="white"/>
<path d="M417.01 485.594H442.542V511.125H417.01V485.594Z" fill="white"/>
<path d="M374.458 528.146H442.542V587.719H374.458V528.146Z" fill="white"/>
</svg>
